<svg width="33" height="32" viewBox="0 0 33 32" fill="none" xmlns="http://www.w3.org/2000/svg">
    <g clip-path="url(#clip0_208_1156)">
        <path d="M21.8334 25.7778L26.2778 21.3334L5.83336 0.888916H1.38892V5.33336L21.8334 25.7778Z" fill="#CCD6DD" />
        <path d="M1.38892 0.888916V5.33336L21.8334 25.7778L24.0556 23.5556L1.38892 0.888916Z" fill="#9AAAB4" />
        <path
            d="M30.2102 29.1627C30.4626 28.9103 30.6173 28.6063 30.6822 28.3023L26.0226 22.7956L25.3995 22.1716C24.8982 21.6703 24.0039 21.7511 23.4013 22.3538L22.8555 22.8978C22.2537 23.4996 22.1728 24.3938 22.6742 24.8951L23.3328 25.5538L28.7995 30.1805C29.1062 30.1165 29.4111 29.9609 29.6653 29.7076L30.2102 29.1627Z"
            fill="#6064CF" />
        <path
            d="M30.2103 29.1627C30.4627 28.9102 30.6174 28.6063 30.6823 28.3023L29.4894 26.8925L28.8343 30.1671C29.1285 30.0987 29.4218 29.9511 29.6654 29.7067L30.2103 29.1627ZM27.268 24.2685L26.4787 28.216L27.5987 29.1636L28.3276 25.5191L27.268 24.2685ZM26.0227 22.7956L25.3996 22.1716C25.3147 22.0896 25.2168 22.0224 25.1098 21.9725L24.2405 26.3209L25.3605 27.2685L26.2112 23.0169L26.0227 22.7956ZM23.8885 22.0063C23.7078 22.0943 23.5431 22.2121 23.4014 22.3547L22.8556 22.8978C22.6413 23.1096 22.4849 23.3728 22.4014 23.6623C22.2752 24.1156 22.3605 24.5823 22.6743 24.8951L23.204 25.4249L23.8885 22.0063C23.8885 22.0054 23.8885 22.0054 23.8885 22.0063Z"
            fill="#3F4183" />
        <path
            d="M30.0555 32C31.4056 32 32.5 30.9056 32.5 29.5556C32.5 28.2056 31.4056 27.1111 30.0555 27.1111C28.7055 27.1111 27.6111 28.2056 27.6111 29.5556C27.6111 30.9056 28.7055 32 30.0555 32Z"
            fill="#3F4183" />
        <path
            d="M26.8343 19.8436C26.9197 19.9289 26.9875 20.0302 27.0337 20.1417C27.0799 20.2532 27.1037 20.3727 27.1037 20.4934C27.1037 20.6141 27.0799 20.7336 27.0337 20.8451C26.9875 20.9566 26.9197 21.0579 26.8343 21.1432L21.4192 26.5583C21.3338 26.6436 21.2325 26.7113 21.121 26.7575C21.0096 26.8036 20.8901 26.8274 20.7694 26.8274C20.6487 26.8274 20.5292 26.8036 20.4177 26.7575C20.3062 26.7113 20.2049 26.6436 20.1196 26.5583C20.0343 26.4729 19.9666 26.3716 19.9204 26.2601C19.8742 26.1487 19.8505 26.0292 19.8505 25.9085C19.8505 25.7878 19.8742 25.6683 19.9204 25.5568C19.9666 25.4453 20.0343 25.344 20.1196 25.2587L25.5347 19.8436C25.62 19.7582 25.7213 19.6904 25.8328 19.6442C25.9443 19.598 26.0638 19.5742 26.1845 19.5742C26.3052 19.5742 26.4247 19.598 26.5362 19.6442C26.6477 19.6904 26.749 19.7582 26.8343 19.8436Z"
            fill="#FFAC33" />
        <path
            d="M20.1195 28.1129C20.9786 28.1129 21.6751 27.4165 21.6751 26.5574C21.6751 25.6983 20.9786 25.0018 20.1195 25.0018C19.2604 25.0018 18.564 25.6983 18.564 26.5574C18.564 27.4165 19.2604 28.1129 20.1195 28.1129Z"
            fill="#FFAC33" />
        <path
            d="M26.8342 21.3982C27.6934 21.3982 28.3898 20.7018 28.3898 19.8427C28.3898 18.9836 27.6934 18.2871 26.8342 18.2871C25.9751 18.2871 25.2787 18.9836 25.2787 19.8427C25.2787 20.7018 25.9751 21.3982 26.8342 21.3982Z"
            fill="#FFAC33" />
        <path
            d="M20.1196 27.4462C20.6105 27.4462 21.0085 27.0483 21.0085 26.5573C21.0085 26.0664 20.6105 25.6685 20.1196 25.6685C19.6287 25.6685 19.2307 26.0664 19.2307 26.5573C19.2307 27.0483 19.6287 27.4462 20.1196 27.4462Z"
            fill="#FFCC4D" />
        <path
            d="M26.8342 20.7316C27.3251 20.7316 27.7231 20.3336 27.7231 19.8427C27.7231 19.3518 27.3251 18.9538 26.8342 18.9538C26.3433 18.9538 25.9453 19.3518 25.9453 19.8427C25.9453 20.3336 26.3433 20.7316 26.8342 20.7316Z"
            fill="#FFCC4D" />
        <path
            d="M30.636 26.0818C30.6989 26.1447 30.7489 26.2194 30.7829 26.3016C30.817 26.3838 30.8345 26.4719 30.8345 26.5609C30.8345 26.6499 30.817 26.738 30.7829 26.8202C30.7489 26.9024 30.6989 26.9771 30.636 27.04L27.5462 30.1289C27.4833 30.1918 27.4086 30.2417 27.3264 30.2758C27.2442 30.3098 27.1561 30.3274 27.0671 30.3274C26.9781 30.3274 26.89 30.3098 26.8078 30.2758C26.7256 30.2417 26.6509 30.1918 26.588 30.1289C26.5251 30.066 26.4752 29.9913 26.4411 29.9091C26.4071 29.8269 26.3895 29.7388 26.3895 29.6498C26.3895 29.5608 26.4071 29.4727 26.4411 29.3905C26.4752 29.3083 26.5251 29.2336 26.588 29.1707L29.6778 26.0818C29.7407 26.0188 29.8153 25.9689 29.8976 25.9348C29.9798 25.9008 30.0679 25.8832 30.1569 25.8832C30.2459 25.8832 30.334 25.9008 30.4162 25.9348C30.4984 25.9689 30.5731 26.0188 30.636 26.0818Z"
            fill="#FFAC33" />
        <path d="M11.1666 25.7778L6.72217 21.3334L27.1666 0.888916H31.6111V5.33336L11.1666 25.7778Z" fill="#CCD6DD" />
        <path d="M31.6111 0.888916V5.33336L11.1667 25.7778L8.94446 23.5556L31.6111 0.888916Z" fill="#9AAAB4" />
        <path
            d="M2.78975 29.1627C2.55265 28.9275 2.38871 28.6286 2.31775 28.3023L6.9773 22.7956L7.60042 22.1716C8.10175 21.6703 8.99597 21.7511 9.59864 22.3538L10.1435 22.8978C10.7453 23.4996 10.8262 24.3938 10.3249 24.8951L9.66619 25.5538L4.19953 30.1805C3.87115 30.1102 3.57032 29.9459 3.33375 29.7076L2.78975 29.1627Z"
            fill="#6064CF" />
        <path
            d="M2.78975 29.1627C2.55265 28.9275 2.38871 28.6286 2.31775 28.3023L3.51064 26.8925L4.16575 30.1671C3.85092 30.0949 3.56286 29.9353 3.33464 29.7067L2.78975 29.1627ZM5.73197 24.2685L6.52131 28.216L5.4013 29.1636L4.67242 25.5191L5.73197 24.2685ZM6.9773 22.7956L7.60042 22.1716C7.68533 22.0896 7.78325 22.0224 7.89019 21.9725L8.75953 26.3209L7.63953 27.2685L6.78886 23.0169L6.9773 22.7956ZM9.11153 22.0063C9.28486 22.0907 9.45108 22.2063 9.59864 22.3547L10.1435 22.8987C10.3693 23.1245 10.5213 23.3911 10.5977 23.6631C10.724 24.1165 10.6386 24.5831 10.3249 24.896L9.79508 25.4258L9.11153 22.0063C9.11153 22.0054 9.11153 22.0054 9.11153 22.0063Z"
            fill="#3F4183" />
        <path
            d="M2.94444 32C4.29447 32 5.38889 30.9056 5.38889 29.5556C5.38889 28.2056 4.29447 27.1111 2.94444 27.1111C1.59442 27.1111 0.5 28.2056 0.5 29.5556C0.5 30.9056 1.59442 32 2.94444 32Z"
            fill="#3F4183" />
        <path
            d="M6.1658 19.8436C6.08039 19.9289 6.01262 20.0302 5.96639 20.1417C5.92016 20.2532 5.89636 20.3727 5.89636 20.4934C5.89636 20.6141 5.92016 20.7336 5.96639 20.8451C6.01262 20.9566 6.08039 21.0579 6.1658 21.1432L11.5809 26.5583C11.6662 26.6436 11.7675 26.7113 11.879 26.7575C11.9905 26.8036 12.11 26.8274 12.2307 26.8274C12.3514 26.8274 12.4709 26.8036 12.5823 26.7575C12.6938 26.7113 12.7951 26.6436 12.8805 26.5583C12.9658 26.4729 13.0335 26.3716 13.0797 26.2601C13.1258 26.1487 13.1496 26.0292 13.1496 25.9085C13.1496 25.7878 13.1258 25.6683 13.0797 25.5568C13.0335 25.4453 12.9658 25.344 12.8805 25.2587L7.46536 19.8436C7.38007 19.7582 7.27879 19.6904 7.16729 19.6442C7.0558 19.598 6.93628 19.5742 6.81558 19.5742C6.69488 19.5742 6.57536 19.598 6.46387 19.6442C6.35237 19.6904 6.25108 19.7582 6.1658 19.8436Z"
            fill="#FFAC33" />
        <path
            d="M12.8804 28.1129C13.7395 28.1129 14.4359 27.4165 14.4359 26.5574C14.4359 25.6983 13.7395 25.0018 12.8804 25.0018C12.0213 25.0018 11.3248 25.6983 11.3248 26.5574C11.3248 27.4165 12.0213 28.1129 12.8804 28.1129Z"
            fill="#FFAC33" />
        <path
            d="M6.16578 21.3982C7.02489 21.3982 7.72134 20.7018 7.72134 19.8427C7.72134 18.9836 7.02489 18.2871 6.16578 18.2871C5.30668 18.2871 4.61023 18.9836 4.61023 19.8427C4.61023 20.7018 5.30668 21.3982 6.16578 21.3982Z"
            fill="#FFAC33" />
        <path
            d="M12.8805 27.4462C13.3714 27.4462 13.7694 27.0483 13.7694 26.5573C13.7694 26.0664 13.3714 25.6685 12.8805 25.6685C12.3895 25.6685 11.9916 26.0664 11.9916 26.5573C11.9916 27.0483 12.3895 27.4462 12.8805 27.4462Z"
            fill="#FFCC4D" />
        <path
            d="M6.16574 20.7316C6.65666 20.7316 7.05463 20.3336 7.05463 19.8427C7.05463 19.3518 6.65666 18.9538 6.16574 18.9538C5.67482 18.9538 5.27686 19.3518 5.27686 19.8427C5.27686 20.3336 5.67482 20.7316 6.16574 20.7316Z"
            fill="#FFCC4D" />
        <path
            d="M2.36396 26.0818C2.30101 26.1447 2.25108 26.2194 2.21701 26.3016C2.18294 26.3838 2.16541 26.4719 2.16541 26.5609C2.16541 26.6499 2.18294 26.738 2.21701 26.8202C2.25108 26.9024 2.30101 26.9771 2.36396 27.04L5.45373 30.1289C5.51665 30.1918 5.59135 30.2417 5.67355 30.2758C5.75576 30.3098 5.84387 30.3274 5.93284 30.3274C6.02182 30.3274 6.10993 30.3098 6.19214 30.2758C6.27434 30.2417 6.34904 30.1918 6.41196 30.1289C6.47487 30.066 6.52478 29.9913 6.55883 29.9091C6.59288 29.8269 6.61041 29.7388 6.61041 29.6498C6.61041 29.5608 6.59288 29.4727 6.55883 29.3905C6.52478 29.3083 6.47487 29.2336 6.41196 29.1707L3.32218 26.0818C3.25928 26.0188 3.18459 25.9689 3.10238 25.9348C3.02017 25.9008 2.93205 25.8832 2.84307 25.8832C2.75408 25.8832 2.66596 25.9008 2.58376 25.9348C2.50155 25.9689 2.42686 26.0188 2.36396 26.0818Z"
            fill="#FFAC33" />
    </g>
    <defs>
        <clipPath id="clip0_208_1156">
            <rect width="32" height="32" fill="white" transform="translate(0.5)" />
        </clipPath>
    </defs>
</svg>