<svg width="20" height="20" viewBox="0 0 20 20" fill="currentColor" xmlns="http://www.w3.org/2000/svg">
    <path
        d="M18.3333 6.80195V6.86239C18.3333 7.57968 18.3333 7.93832 18.1606 8.23175C17.9879 8.52517 17.6744 8.69934 17.0474 9.04767L16.3863 9.415C16.8418 7.87487 16.9938 6.22012 17.0501 4.80498C17.0524 4.7443 17.0552 4.68288 17.0579 4.62081L17.0598 4.57733C17.6026 4.7658 17.9073 4.90632 18.0973 5.17007C18.3333 5.49744 18.3333 5.93228 18.3333 6.80195Z"
     />
    <path
        d="M1.66667 6.80195V6.86239C1.66669 7.57968 1.6667 7.93832 1.83936 8.23175C2.01202 8.52517 2.32553 8.69933 2.95254 9.04767L3.61401 9.41517C3.15839 7.87501 3.00639 6.22018 2.95021 4.80498C2.9478 4.7443 2.94509 4.68288 2.94234 4.62081L2.94042 4.57722C2.39751 4.76575 2.09272 4.90627 1.90259 5.17007C1.66664 5.49743 1.66664 5.93228 1.66667 6.80195Z"
         />
    <path fill-rule="evenodd" clip-rule="evenodd"
        d="M13.6476 1.95562C12.7109 1.79758 11.4864 1.66667 10.0002 1.66667C8.51383 1.66667 7.28937 1.79758 6.35265 1.95562C5.40371 2.11573 4.92923 2.19578 4.53281 2.68403C4.13638 3.17228 4.15733 3.69998 4.19923 4.75539C4.34308 8.37867 5.12497 12.9043 9.375 13.3048V16.25H8.18317C7.78593 16.25 7.44392 16.5304 7.36602 16.9199L7.20833 17.7083H5C4.65482 17.7083 4.375 17.9882 4.375 18.3333C4.375 18.6785 4.65482 18.9583 5 18.9583H15C15.3452 18.9583 15.625 18.6785 15.625 18.3333C15.625 17.9882 15.3452 17.7083 15 17.7083H12.7917L12.634 16.9199C12.5561 16.5304 12.2141 16.25 11.8168 16.25H10.625V13.3048C14.8752 12.9044 15.6572 8.37875 15.801 4.75539C15.8429 3.69998 15.8639 3.17228 15.4674 2.68403C15.071 2.19578 14.5966 2.11573 13.6476 1.95562Z"
      />
</svg>