<svg width="16" height="16" viewBox="0 0 24 24" fill="currentColor" xmlns="http://www.w3.org/2000/svg">
<path fill-rule="evenodd" clip-rule="evenodd" d="M11.7089 1.56001C12.7076 0.561308 14.0621 0.000244141 15.4745 0.000244141C16.8868 0.000244141 18.2414 0.561308 19.2401 1.56001C20.2388 2.55871 20.7998 3.91323 20.7998 5.32561C20.7998 6.73798 20.2388 8.09251 19.2401 9.09121L10.0289 18.3024C9.74447 18.5869 9.40683 18.8126 9.03521 18.9666C8.6636 19.1206 8.26529 19.1999 7.86303 19.2C7.05062 19.2001 6.27142 18.8776 5.69686 18.3032C5.12229 17.7289 4.79942 16.9498 4.79927 16.1374C4.79912 15.325 5.12171 14.5458 5.69606 13.9712L14.6321 5.03361L15.7649 6.16641L6.82726 15.1024C6.69142 15.2382 6.58367 15.3995 6.51015 15.577C6.43664 15.7545 6.3988 15.9447 6.3988 16.1368C6.3988 16.3289 6.43664 16.5191 6.51015 16.6966C6.58367 16.8741 6.69142 17.0354 6.82726 17.1712C6.9631 17.307 7.12436 17.4148 7.30185 17.4883C7.47933 17.5618 7.66955 17.5997 7.86166 17.5997C8.05377 17.5997 8.24399 17.5618 8.42147 17.4883C8.59896 17.4148 8.76022 17.307 8.89606 17.1712L18.1073 7.96001C18.4532 7.61405 18.7276 7.20334 18.9149 6.75133C19.1021 6.29932 19.1985 5.81486 19.1985 5.32561C19.1985 4.83635 19.1021 4.35189 18.9149 3.89988C18.7276 3.44787 18.4532 3.03716 18.1073 2.69121C17.7613 2.34525 17.3506 2.07083 16.8986 1.8836C16.4466 1.69637 15.9621 1.6 15.4729 1.6C14.9836 1.6 14.4991 1.69637 14.0471 1.8836C13.5951 2.07083 13.1844 2.34525 12.8385 2.69121L3.35366 12.1776C2.25338 13.3053 1.64182 14.8212 1.65152 16.3967C1.66122 17.9723 2.2914 19.4805 3.40549 20.5946C4.51957 21.7087 6.02781 22.3388 7.60333 22.3485C9.17886 22.3582 10.6947 21.7467 11.8225 20.6464L21.0337 11.4336L22.1665 12.5664L12.9537 21.7776C11.5219 23.1579 9.60558 23.9209 7.61695 23.9027C5.62833 23.8844 3.72634 23.0862 2.32021 21.6799C0.914082 20.2735 0.116193 18.3714 0.098211 16.3828C0.0802295 14.3942 0.843593 12.4779 2.22406 11.0464L11.7089 1.56001Z"/>
</svg>
