<svg width="200" height="200" viewBox="0 0 200 200" fill="none" xmlns="http://www.w3.org/2000/svg">
    <path d="M133.333 22.2222L66.6667 0L0 22.2222V200L66.6667 177.778L133.333 200L200 177.778V0L133.333 22.2222Z"
        fill="#BBBDF2" />
    <path d="M66.6665 0V177.778L133.333 200V22.2222L66.6665 0Z" fill="#9FA1E7" />
    <path
        d="M63.5721 45.2556C64.3498 45.7111 64.8276 46.6445 64.8443 48.2389C64.9165 53.6889 63.6054 58.95 63.3332 64.3167C63.2165 66.6111 64.1832 68.2722 65.1443 70.3445C66.5943 73.45 64.6887 75.4778 65.0165 78.5889C65.1054 79.3722 65.7943 79.6833 65.8054 80.5278C65.8998 85.1556 59.1998 95.1167 53.1998 93.8833C49.611 93.1445 53.0276 87.1833 51.2776 84.6C50.611 83.6445 45.9054 82.1889 44.4832 82.2222C39.7665 82.3556 42.8665 87.4833 43.7887 89.4389C45.661 93.4 46.3276 97.6111 48.9498 101.5C47.4731 100.199 45.7837 99.1617 43.9554 98.4334C41.2887 97.3389 38.9498 98.4945 36.6387 97.4389C33.2165 95.8945 32.9554 92.15 31.1776 89.4389C29.4887 86.8667 24.811 86.7945 22.5943 83.9278C20.4221 81.1167 20.9554 77.6445 21.9776 74.5722C23.1887 70.9389 24.8332 68.3167 27.3887 65.1722C29.1721 62.9944 31.6776 59.7722 28.4332 57.7445C25.4221 55.8445 22.2832 56.8333 19.5887 58.3C16.7332 59.85 15.3554 59.9167 14.5498 56.5333C13.7387 53.1722 18.2832 50.7833 20.5721 48.7556C28.911 41.4111 41.3332 45.0333 48.2998 51.9389C48.7109 52.3445 59.7665 43.0278 63.5721 45.2556ZM34.611 121.822C35.2887 125.644 39.7054 123.306 40.9054 126.256C41.8554 128.6 39.211 131.75 39.1054 133.956C45.4498 135.389 49.0721 140.583 49.0443 146.967C48.9943 156.139 52.061 165.639 59.3165 170.978C59.7998 169.128 60.3554 167.172 60.5998 165.178C61.5387 157.389 59.9776 150.528 65.9276 144.156C68.4943 141.411 67.9832 140.328 67.7832 136.872C67.6776 135.117 68.0332 130.922 69.461 129.972C71.2498 130.822 74.8665 131.294 76.461 129.894C77.511 128.95 78.7332 123.633 78.9498 122.2C79.6498 117.711 78.061 114.128 75.4443 110.711C73.2943 107.9 69.9554 105.511 66.4776 104.8C63.0443 104.089 59.3276 104.556 56.0943 102.994C54.5776 102.25 53.2832 101.233 51.7221 100.533C49.861 99.7056 46.1998 99.0833 44.7998 97.6222C46.861 99.7722 48.3443 102.939 48.2832 105.956C48.2221 109.1 46.3665 109.506 43.9665 110.978C40.5832 113.044 33.7498 116.939 34.611 121.822ZM81.4665 35.7111C72.9887 33.6333 66.8387 40.6889 69.361 48.8889C73.4943 62.3389 82.0887 41.1945 81.4665 35.7111ZM78.1943 71.4611C78.3832 75.0445 79.5165 78.5222 82.9165 79.3056C85.1165 79.8056 87.5998 78.8611 88.9387 76.5C90.8276 73.1611 85.6498 64.3 91.4832 64.7278C95.6721 65.0389 95.8443 71.5222 97.1443 74.3278C97.3083 74.4126 97.4902 74.4568 97.6748 74.4568C97.8595 74.4568 98.0414 74.4126 98.2054 74.3278C99.1665 71.6056 98.6276 68.4778 98.8776 65.7056C103.805 64.3667 106.511 71.6445 107.65 75.2556C108.594 78.2611 110.522 79.2667 105.561 80.4333C102.889 81.0667 100.95 80.4611 99.1498 78.3056C96.1554 80.3333 94.5387 82.5778 91.2776 84.2556C82.1054 88.9889 79.6665 102.872 84.5276 112.289C87.861 118.75 95.5665 112.867 99.5721 110.9C99.3943 114.528 102.605 118.167 103.722 121.561C106.955 131.361 104.628 140.706 104.561 150.767C104.55 152.794 105.05 160.517 107.633 160.983C110.6 161.517 113.167 152.378 113.817 150.25C116.517 141.467 116.555 132.4 121.433 124.261C123.317 121.106 126.733 118.467 125.167 114.483C123.589 110.483 115.617 109.706 116.483 104.5C116.244 105.978 124.411 113.528 126.255 113.722C134.872 114.628 126.744 103.156 129.333 100.256C133.505 95.6111 136.555 107.111 136.783 109.294C137.439 115.239 136.194 121.15 136.1 127.089C136.067 129.572 135.383 139.806 140.044 138.333C143.672 137.183 141.894 129.256 142.383 126.478C142.833 123.906 145.55 114.139 147.761 112.967C152.6 110.417 155.2 121.322 161.144 121.094C162.561 116.05 161.294 113.628 165.161 109.961C168.005 107.261 172.355 105.517 174.039 101.478C175.35 98.3611 175.783 92.0222 174.872 88.7833C173.15 82.6222 167.289 85.0889 161.8 83.6667C161.555 80.5056 164.844 78.9833 164.972 75.6945C165.044 74.0556 162.444 74.0445 162.717 71.9722C162.889 70.6778 164.828 68.6 165.661 67.5222C168.561 63.7 172.661 61.3611 176.878 65.4778C177.444 62.7278 176.844 59.5167 173.6 59.5445C173.372 56.1445 171.1 48.2 167.478 46.4222C164.083 44.7278 163.928 47.1444 161.167 49.8056C158.122 52.7556 154.333 54.6611 151.761 57.5333C149.378 60.2 144.489 66.65 141.15 64.1C139.361 62.7222 139.767 57.8167 138.433 55.8C136.661 53.1056 135.517 52.6222 132.217 52.1278C132.572 51.5278 132.65 50.0333 133.083 49.3445C132.072 49.6945 130.283 49.3556 129.278 49.7C129.122 45.5 135.55 45.3389 137.022 42.4611C134.217 42.2333 131.622 42.1445 129.178 43.7389C127.205 45.0278 126.744 48.0167 124.889 48.9056C120.172 51.2167 108.872 43.3944 103.689 42.2611C96.1943 40.6167 92.2054 43.7722 89.2221 50.6889C87.2498 50.3111 84.8998 49.6611 83.3498 51.2556C84.5221 52.8056 86.2721 53.5445 88.2443 53.8167C88.4083 54.5671 88.4083 55.3441 88.2443 56.0945C86.5998 56.45 82.411 59.1611 81.3998 60.1111C79.2221 62.1611 78.8998 62.9778 78.4665 66.0333C78.2065 67.8301 78.1153 69.6473 78.1943 71.4611ZM154.794 140.861C152.828 144.767 148.755 159.556 153.805 160.556C159.917 161.75 162.433 151.817 168.483 153.272C169.022 156.167 171.233 156.917 172.905 154.544C173.95 153.072 172.783 148.378 172.539 146.783C171.678 140.978 170.544 137.461 171.928 131.561C170.772 132.556 167.633 137.478 166.505 137.811C161.772 139.222 164.444 133.544 165.683 131.694C157.222 134.6 150.683 145.133 151.361 154.161"
        fill="#6064CF" />
</svg>