<svg width="20" height="20" viewBox="0 0 20 20" fill="none" xmlns="http://www.w3.org/2000/svg">
<path d="M17.7083 9.99996C17.7083 12.0443 16.8962 14.005 15.4506 15.4506C14.005 16.8962 12.0443 17.7083 9.99996 17.7083V18.9583C14.9475 18.9583 18.9583 14.9475 18.9583 9.99996H17.7083ZM9.99996 17.7083C7.95558 17.7083 5.99494 16.8962 4.54934 15.4506C3.10375 14.005 2.29163 12.0443 2.29163 9.99996H1.04163C1.04163 14.9475 5.05246 18.9583 9.99996 18.9583V17.7083ZM2.29163 9.99996C2.29163 7.95558 3.10375 5.99494 4.54934 4.54934C5.99494 3.10375 7.95558 2.29163 9.99996 2.29163V1.04163C5.05246 1.04163 1.04163 5.05246 1.04163 9.99996H2.29163ZM12.9166 11.875C11.6458 11.875 10.427 11.3701 9.52841 10.4715C8.62979 9.5729 8.12496 8.35412 8.12496 7.08329H6.87496C6.87496 8.68564 7.51149 10.2224 8.64452 11.3554C9.77755 12.4884 11.3143 13.125 12.9166 13.125V11.875ZM17.0208 9.55746C16.5944 10.2647 15.9924 10.8497 15.2734 11.2557C14.5543 11.6618 13.7424 11.8751 12.9166 11.875V13.125C13.9578 13.1253 14.9813 12.8565 15.888 12.3448C16.7947 11.833 17.5538 11.0956 18.0916 10.2041L17.0208 9.55746ZM8.12496 7.08329C8.12484 6.25748 8.33815 5.44565 8.7442 4.72657C9.15025 4.00748 9.73525 3.40553 10.4425 2.97913L9.79579 1.90913C8.90442 2.44686 8.16711 3.2058 7.65537 4.11234C7.14362 5.01889 6.87479 6.04228 6.87496 7.08329H8.12496ZM9.99996 2.29163C9.95808 2.29082 9.91678 2.28171 9.87844 2.26484C9.8401 2.24796 9.8055 2.22364 9.77663 2.19329C9.74149 2.158 9.7177 2.11303 9.70829 2.06413C9.70496 2.03829 9.70663 1.96329 9.79579 1.90913L10.4425 2.97913C10.8616 2.72579 10.9966 2.26163 10.9475 1.89663C10.8958 1.51746 10.5975 1.04163 9.99996 1.04163V2.29163ZM18.0916 10.2041C18.0366 10.2933 17.9616 10.295 17.9358 10.2916C17.8869 10.2822 17.8419 10.2584 17.8066 10.2233C17.7763 10.1944 17.752 10.1598 17.7351 10.1215C17.7182 10.0831 17.7091 10.0418 17.7083 9.99996H18.9583C18.9583 9.40246 18.4825 9.10413 18.1033 9.05246C17.7383 9.00329 17.2741 9.13829 17.0208 9.55746L18.0916 10.2041Z" fill="black"/>
</svg>
