<svg width="90" height="90" viewBox="0 0 90 90" fill="none" xmlns="http://www.w3.org/2000/svg">
    <path d="M33.8097 49.0812L40.919 56.1904L28.4752 68.6342L21.366 61.5224L33.8097 49.0812Z" fill="#9AAAB4" />
    <path
        d="M3.02458 72.7544L17.8062 57.9752C18.7491 57.0327 20.0277 56.5032 21.3609 56.5032C22.6941 56.5032 23.9727 57.0327 24.9155 57.9752L32.0248 65.0845C32.9674 66.0274 33.4969 67.306 33.4969 68.6391C33.4969 69.9723 32.9674 71.2509 32.0248 72.1938L17.2456 86.9729C16.3159 87.9239 15.2067 88.681 13.9823 89.2004C12.7579 89.7197 11.4427 89.991 10.1127 89.9986C8.78274 90.0062 7.46449 89.7498 6.23429 89.2444C5.00408 88.739 3.88635 87.9945 2.94583 87.0542C2.00531 86.1138 1.26067 84.9962 0.755041 83.7661C0.24941 82.536 -0.00717186 81.2178 0.000152498 79.8878C0.00747685 78.5579 0.278562 77.2426 0.797711 76.0181C1.31686 74.7936 2.07376 73.6843 3.02458 72.7544Z"
        fill="#66757F" />
    <path
        d="M56.0625 67.8749C74.8056 67.8749 90 52.6806 90 33.9375C90 15.1943 74.8056 0 56.0625 0C37.3193 0 22.125 15.1943 22.125 33.9375C22.125 52.6806 37.3193 67.8749 56.0625 67.8749Z"
        fill="#8899A6" />
    <path
        d="M56.0626 57.8195C69.2522 57.8195 79.9445 47.1272 79.9445 33.9376C79.9445 20.748 69.2522 10.0557 56.0626 10.0557C42.873 10.0557 32.1807 20.748 32.1807 33.9376C32.1807 47.1272 42.873 57.8195 56.0626 57.8195Z"
        fill="#97CFF5" />
</svg>