<svg width="60" height="60" viewBox="0 0 60 60" fill="none" xmlns="http://www.w3.org/2000/svg">
<rect width="60" height="60" rx="10" fill="#6064CF"/>
<g clip-path="url(#clip0_220_764)">
<path d="M18.75 12L26.818 20.068L20.068 26.818L12 18.75V12H18.75Z" fill="white" stroke="white"/>
<path d="M27.091 39.659L30.466 43.034L27.284 46.216L22.125 41.0569L18.7448 44.4371C18.7483 44.4992 18.75 44.562 18.75 44.625C18.75 46.4889 17.239 48 15.375 48C13.511 48 12 46.4889 12 44.625C12 42.7611 13.511 41.25 15.375 41.25C15.438 41.25 15.5007 41.2518 15.5629 41.2552L18.943 37.875L13.784 32.716L16.966 29.534L20.341 32.909L41.25 12H48V18.75L27.091 39.659Z" fill="white" stroke="white"/>
<path d="M44.6249 48.0001C42.761 48.0001 41.2499 46.489 41.2499 44.6251C41.2499 44.5621 41.2517 44.4993 41.2551 44.4372L34.693 37.8751L43.034 29.5341L46.2159 32.7161L41.0569 37.8751L44.4371 41.2552C44.4992 41.2519 44.5619 41.2501 44.6249 41.2501C46.4888 41.2501 47.9999 42.7612 47.9999 44.6251C47.9999 46.489 46.4888 48.0001 44.6249 48.0001Z" fill="white" stroke="white"/>
</g>
<defs>
<clipPath id="clip0_220_764">
<rect width="36" height="36" fill="white" transform="translate(12 12)"/>
</clipPath>
</defs>
</svg>
